<svg xmlns="http://www.w3.org/2000/svg" viewBox="0 0 64 64" id="education"><rect width="16" height="29" x="45" y="25" fill="#f4646f"></rect><path fill="#ea535e" d="M61,51v3h-16V25h3v18c0,4.42,3.58,8,8,8h5Z"></path><path fill="#ffe9e6" d="M63,46h-1v-1c0-.5522-.4473-1-1-1s-1,.4478-1,1v1h-2v-1c0-.5522-.4473-1-1-1s-1,.4478-1,1v1h-2v-1c0-.5522-.4473-1-1-1s-1,.4478-1,1v1h-2v-1c0-.5522-.4473-1-1-1s-1,.4478-1,1v1h-3c-.5527,0-1,.4478-1,1s.4473,1,1,1h3v11c0,.5522,.4473,1,1,1s1-.4478,1-1v-11h2v11c0,.5522,.4473,1,1,1s1-.4478,1-1v-11h2v11c0,.5522,.4473,1,1,1s1-.4478,1-1v-11h2v11c0,.5522,.4473,1,1,1s1-.4478,1-1v-11h1c.5527,0,1-.4478,1-1s-.4473-1-1-1Z"></path><polygon fill="#f99c21" points="45 25 63 25 61 17 45 17 45 25"></polygon><path fill="#ed9015" d="M63,25h-18v-8h3v2c0,2.21,1.79,4,4,4h10.5l.5,2Z"></path><rect width="18" height="4" x="45" y="59" fill="#97b2ff"></rect><rect width="5" height="18" x="40" y="45" fill="#97b2ff"></rect><rect width="16" height="29" x="3" y="25" fill="#f4646f"></rect><path fill="#ea535e" d="M19,51v3H3V25h3v18c0,4.42,3.58,8,8,8h5Z"></path><path fill="#ffe9e6" d="M19,46h-3v-1c0-.5522-.4478-1-1-1s-1,.4478-1,1v1h-2v-1c0-.5522-.4478-1-1-1s-1,.4478-1,1v1h-2v-1c0-.5522-.4478-1-1-1s-1,.4478-1,1v1h-2v-1c0-.5522-.4478-1-1-1s-1,.4478-1,1v1H1c-.5522,0-1,.4478-1,1s.4478,1,1,1h1v11c0,.5522,.4478,1,1,1s1-.4478,1-1v-11h2v11c0,.5522,.4478,1,1,1s1-.4478,1-1v-11h2v11c0,.5522,.4478,1,1,1s1-.4478,1-1v-11h2v11c0,.5522,.4478,1,1,1s1-.4478,1-1v-11h3c.5522,0,1-.4478,1-1s-.4478-1-1-1Z"></path><polygon fill="#f99c21" points="19 25 1 25 3 17 19 17 19 25"></polygon><path fill="#ed9015" d="M19,23v2H1l2-8h2.5l-.26,1.03c-.63,2.52,1.28,4.97,3.88,4.97h9.88Z"></path><polygon fill="#ffe9e6" points="45 14 45 45 40 45 40 54 24 54 24 45 19 45 19 14 32 5.76 45 14"></polygon><path fill="#f9d2cf" d="M29,52h11v2H24v-9h-5V14l3-1.9v27.9c0,1.66,1.34,3,3,3h1v6c0,1.66,1.34,3,3,3Z"></path><rect width="18" height="4" x="1" y="59" fill="#97b2ff"></rect><path fill="#80a1ff" d="M19 61v2H1v-4h3c0 1.1.9 2 2 2h13zM63 61v2h-18v-4h3c0 1.1.9 2 2 2h13z"></path><rect width="5" height="18" x="19" y="45" fill="#97b2ff"></rect><path fill="#80a1ff" d="M24 61v2h-5v-18h2v14c0 1.1.9 2 2 2h1zM45 61v2h-5v-18h2v14c0 1.1.9 2 2 2h1z"></path><rect width="8" height="12" x="28" y="42" fill="#f99c21"></rect><path fill="#ed9015" d="M36,52v2h-8v-12h3v6c0,2.21,1.79,4,4,4h1Z"></path><circle cx="32" cy="18" r="4" fill="#f99c21"></circle><path fill="#ed9015" d="M35.64,19.64c-.62,1.39-2.02,2.36-3.64,2.36-2.21,0-4-1.79-4-4,0-1.62,.97-3.02,2.36-3.64-.23,.5-.36,1.06-.36,1.64,0,2.21,1.79,4,4,4,.58,0,1.14-.13,1.64-.36Z"></path><path fill="#ffe9e6" d="M7 28c-.5522 0-1 .4478-1 1v3c0 .5522.4478 1 1 1s1-.4478 1-1v-3c0-.5522-.4478-1-1-1zM11 28c-.5522 0-1 .4478-1 1v3c0 .5522.4478 1 1 1s1-.4478 1-1v-3c0-.5522-.4478-1-1-1zM15 28c-.5522 0-1 .4478-1 1v3c0 .5522.4478 1 1 1s1-.4478 1-1v-3c0-.5522-.4478-1-1-1zM7 35c-.5522 0-1 .4478-1 1v3c0 .5522.4478 1 1 1s1-.4478 1-1v-3c0-.5522-.4478-1-1-1zM11 35c-.5522 0-1 .4478-1 1v3c0 .5522.4478 1 1 1s1-.4478 1-1v-3c0-.5522-.4478-1-1-1zM15 35c-.5522 0-1 .4478-1 1v3c0 .5522.4478 1 1 1s1-.4478 1-1v-3c0-.5522-.4478-1-1-1zM57 28c-.5527 0-1 .4478-1 1v3c0 .5522.4473 1 1 1s1-.4478 1-1v-3c0-.5522-.4473-1-1-1zM53 28c-.5527 0-1 .4478-1 1v3c0 .5522.4473 1 1 1s1-.4478 1-1v-3c0-.5522-.4473-1-1-1zM49 28c-.5527 0-1 .4478-1 1v3c0 .5522.4473 1 1 1s1-.4478 1-1v-3c0-.5522-.4473-1-1-1zM57 35c-.5527 0-1 .4478-1 1v3c0 .5522.4473 1 1 1s1-.4478 1-1v-3c0-.5522-.4473-1-1-1zM53 35c-.5527 0-1 .4478-1 1v3c0 .5522.4473 1 1 1s1-.4478 1-1v-3c0-.5522-.4473-1-1-1zM49 35c-.5527 0-1 .4478-1 1v3c0 .5522.4473 1 1 1s1-.4478 1-1v-3c0-.5522-.4473-1-1-1z"></path><path fill="#97b2ff" d="M24 26c-.5522 0-1 .4478-1 1v3c0 .5522.4478 1 1 1s1-.4478 1-1v-3c0-.5522-.4478-1-1-1zM28 26c-.5522 0-1 .4478-1 1v3c0 .5522.4478 1 1 1s1-.4478 1-1v-3c0-.5522-.4478-1-1-1zM32 26c-.5522 0-1 .4478-1 1v3c0 .5522.4478 1 1 1s1-.4478 1-1v-3c0-.5522-.4478-1-1-1zM24 33c-.5522 0-1 .4478-1 1v3c0 .5522.4478 1 1 1s1-.4478 1-1v-3c0-.5522-.4478-1-1-1zM28 33c-.5522 0-1 .4478-1 1v3c0 .5522.4478 1 1 1s1-.4478 1-1v-3c0-.5522-.4478-1-1-1zM40 26c-.5527 0-1 .4478-1 1v3c0 .5522.4473 1 1 1s1-.4478 1-1v-3c0-.5522-.4473-1-1-1zM36 26c-.5527 0-1 .4478-1 1v3c0 .5522.4473 1 1 1s1-.4478 1-1v-3c0-.5522-.4473-1-1-1zM40 33c-.5527 0-1 .4478-1 1v3c0 .5522.4473 1 1 1s1-.4478 1-1v-3c0-.5522-.4473-1-1-1zM36 33c-.5527 0-1 .4478-1 1v3c0 .5522.4473 1 1 1s1-.4478 1-1v-3c0-.5522-.4473-1-1-1zM32 33c-.5522 0-1 .4478-1 1v3c0 .5522.4478 1 1 1s1-.4478 1-1v-3c0-.5522-.4478-1-1-1z"></path><path fill="#f4646f" d="M47.18,13.15c-.6,.93-1.83,1.19-2.76,.6l-12.42-7.9901-12.42,7.9901c-.93,.59-2.16,.33-2.76-.6-.6-.93-.33-2.17,.6-2.77L32,1l14.58,9.38c.93,.6,1.2,1.84,.6,2.77Z"></path><path fill="#ea535e" d="M33.5,1.97l-13.08,8.41c-.93,.6-1.2,1.84-.6,2.77,.07,.11,.15,.2,.23,.29l-.47,.31c-.93,.59-2.16,.33-2.76-.6-.6-.9301-.33-2.17,.6-2.77L32,1l1.5,.97Z"></path></svg>